<?xml version="1.0" encoding="UTF-8" standalone="no"?>
<!DOCTYPE svg PUBLIC "-//W3C//DTD SVG 1.1//EN" "http://www.w3.org/Graphics/SVG/1.1/DTD/svg11.dtd">
<svg version="1.1" xmlns="http://www.w3.org/2000/svg" xmlns:xlink="http://www.w3.org/1999/xlink" preserveAspectRatio="xMidYMid meet" viewBox="0 0 640 640" width="640" height="640"><defs><path d="M123.57 202.82C197 89.74 348.42 57.56 461.49 130.99C574.57 204.42 606.75 355.84 533.32 468.91C459.89 581.98 308.47 614.17 195.4 540.74C82.33 467.31 50.14 315.89 123.57 202.82Z" id="a3lexqXbgV"></path><path d="M113.99 196.59C187.42 83.52 338.83 51.33 451.91 124.76C564.98 198.2 597.17 349.61 523.74 462.69C450.3 575.76 298.89 607.94 185.81 534.51C72.74 461.08 40.56 309.67 113.99 196.59Z" id="i2JAFI8FB"></path><path d="M238.46 304.14C248.56 309.97 251.98 322.97 246.11 333.15C240.23 343.33 227.26 346.86 217.16 341.02C207.06 335.19 203.63 322.19 209.51 312.02C215.38 301.84 228.36 298.31 238.46 304.14Z" id="a1neybZOKH"></path><path d="M180 293.69L205.81 308.97" id="a6dNZ2wC2K"></path><path d="M205.53 257.65L219.95 297.61" id="e6Jw7LaNA"></path><path d="M237 348.93L246.52 376.53" id="a4JeHgAps6"></path><path d="M255.97 274.67L241.61 300.24" id="lczCWkYWj"></path><path d="M214.71 347.11L194.2 382.35" id="c3qyN3XrsR"></path><path d="M251.33 336.16L281.13 354.45" id="c5nNMwwXo"></path><path d="M253.65 314.29L282.31 308.74" id="dMULbljVh"></path><path d="M181.44 332.98L201.28 328.3" id="abhjBOxLK"></path><path d="M237.99 442.77C143.15 393.69 95.81 307.78 132.34 251.06C168.87 194.34 275.53 188.14 370.37 237.23C465.21 286.31 512.55 372.22 476.02 428.94C439.49 485.66 332.83 491.86 237.99 442.77Z" id="opZ2Lt0H"></path><path d="M298.83 473.52C287 493.93 265.93 502.32 251.8 492.24C237.68 482.16 235.82 457.4 247.65 436.99C259.49 416.57 280.56 408.18 294.68 418.26C308.81 428.34 310.67 453.1 298.83 473.52Z" id="c7OusAcDP"></path><path d="M290.31 457C290.31 466.93 282.24 475 272.31 475C262.38 475 254.31 466.93 254.31 457C254.31 447.07 262.38 439 272.31 439C282.24 439 290.31 447.07 290.31 457Z" id="ap36XRvyo"></path><path d="" id="m5hDnGqP2"></path><path d="M511.96 230.5C511.96 256.16 490 277 462.96 277C435.92 277 413.96 256.16 413.96 230.5C413.96 204.84 435.92 184 462.96 184C490 184 511.96 204.84 511.96 230.5Z" id="e2UFglsNSJ"></path></defs><g><g><use xlink:href="#a3lexqXbgV" opacity="1" fill="#b5ccfe" fill-opacity="1"></use><g><filter id="shadow9350392" x="66.17" y="73.59" width="525.55" height="525.55" filterUnits="userSpaceOnUse" primitiveUnits="userSpaceOnUse"><feFlood></feFlood><feComposite in2="SourceAlpha" operator="out"></feComposite><feGaussianBlur stdDeviation="2.24"></feGaussianBlur><feOffset dx="1" dy="1" result="afterOffset"></feOffset><feFlood flood-color="#ffffff" flood-opacity="1"></feFlood><feComposite in2="afterOffset" operator="in"></feComposite><feMorphology operator="dilate" radius="2"></feMorphology><feComposite in2="SourceAlpha" operator="in"></feComposite></filter><path d="M123.57 202.82C197 89.74 348.42 57.56 461.49 130.99C574.57 204.42 606.75 355.84 533.32 468.91C459.89 581.98 308.47 614.17 195.4 540.74C82.33 467.31 50.14 315.89 123.57 202.82Z" id="a11RF7OTY" fill="white" fill-opacity="1" filter="url(#shadow9350392)"></path></g></g><g><g><use xlink:href="#i2JAFI8FB" opacity="1" fill-opacity="0" stroke="#000000" stroke-width="1" stroke-opacity="1"></use></g></g><g><g><g><use xlink:href="#a1neybZOKH" opacity="1" fill-opacity="0" stroke="#000000" stroke-width="5" stroke-opacity="1"></use></g></g><g><g><use xlink:href="#a6dNZ2wC2K" opacity="1" fill-opacity="0" stroke="#000000" stroke-width="5" stroke-opacity="1"></use></g></g><g><g><use xlink:href="#e6Jw7LaNA" opacity="1" fill-opacity="0" stroke="#000000" stroke-width="5" stroke-opacity="1"></use></g></g><g><g><use xlink:href="#a4JeHgAps6" opacity="1" fill-opacity="0" stroke="#000000" stroke-width="5" stroke-opacity="1"></use></g></g><g><g><use xlink:href="#lczCWkYWj" opacity="1" fill-opacity="0" stroke="#000000" stroke-width="5" stroke-opacity="1"></use></g></g><g><g><use xlink:href="#c3qyN3XrsR" opacity="1" fill-opacity="0" stroke="#000000" stroke-width="5" stroke-opacity="1"></use></g></g><g><g><use xlink:href="#c5nNMwwXo" opacity="1" fill-opacity="0" stroke="#000000" stroke-width="5" stroke-opacity="1"></use></g></g><g><g><use xlink:href="#dMULbljVh" opacity="1" fill-opacity="0" stroke="#000000" stroke-width="5" stroke-opacity="1"></use></g></g><g><g><use xlink:href="#abhjBOxLK" opacity="1" fill-opacity="0" stroke="#000000" stroke-width="5" stroke-opacity="1"></use></g></g></g><g><g><use xlink:href="#opZ2Lt0H" opacity="1" fill-opacity="0" stroke="#2e2e2e" stroke-width="3" stroke-opacity="1"></use></g></g><g><use xlink:href="#c7OusAcDP" opacity="1" fill="#b5ccfe" fill-opacity="1"></use></g><g><g><use xlink:href="#ap36XRvyo" opacity="1" fill-opacity="0" stroke="#000000" stroke-width="5" stroke-opacity="1"></use></g></g><g><g><use xlink:href="#m5hDnGqP2" opacity="1" fill-opacity="0" stroke="#413b3b" stroke-width="2" stroke-opacity="1"></use></g></g><g><use xlink:href="#e2UFglsNSJ" opacity="1" fill="#b5ccfe" fill-opacity="1"></use></g></g></svg>